<svg width="36.000000" height="36.000000" viewBox="0 0 36 36" fill="none" xmlns="http://www.w3.org/2000/svg" xmlns:xlink="http://www.w3.org/1999/xlink">
	<desc>
			Created with Pixso.
	</desc>
	<defs/>
	<path id="Vector" d="M35 18.19L35 17.99L35 17.8C27.03 17.55 23.38 17.36 20.47 14.52C17.64 11.61 17.44 7.97 17.2 -0.01L17 -0.01L16.8 -0.01C16.56 7.97 16.36 11.61 13.52 14.52C10.61 17.36 6.97 17.55 -1 17.8L-1 17.99L-1 18.19C6.97 18.43 10.61 18.63 13.52 21.47C16.36 24.38 16.56 28.02 16.8 35.99L17 35.99L17.2 35.99C17.44 28.02 17.64 24.38 20.47 21.47C23.38 18.63 27.03 18.43 35 18.19Z" fill="#36BA5F" fill-opacity="1.000000" fill-rule="evenodd"/>
</svg>
