<svg width="19.000000" height="19.000000" viewBox="0 0 19 19" fill="none" xmlns="http://www.w3.org/2000/svg" xmlns:xlink="http://www.w3.org/1999/xlink">
	<desc>
			Created with Pixso.
	</desc>
	<defs/>
	<path id="Shape" d="M4.64825 -0.799988C1.64166 -0.799988 -0.796448 1.63815 -0.796448 4.64471L-0.796448 13.3562C-0.796448 16.3628 1.64166 18.8009 4.64825 18.8009L13.3597 18.8009C16.3663 18.8009 18.8044 16.3628 18.8044 13.3562L18.8044 4.64471C18.8044 1.63815 16.3663 -0.799988 13.3597 -0.799988L4.64825 -0.799988ZM16.6175 2.46667C16.6175 1.8656 16.1296 1.37775 15.5286 1.37775C14.9275 1.37775 14.4396 1.8656 14.4396 2.46667C14.4396 3.06778 14.9275 3.55563 15.5286 3.55563C16.1296 3.55563 16.6175 3.06778 16.6175 2.46667ZM9.00714 3.55582C12.0137 3.55582 14.4518 5.99393 14.4518 9.0005C14.4518 12.007 12.0137 14.4452 9.00714 14.4452C6.00061 14.4452 3.56244 12.007 3.56244 9.0005C3.56244 5.99393 6.00061 3.55582 9.00714 3.55582ZM5.73505 8.99931C5.73505 7.1951 7.19763 5.73248 9.00183 5.73248C10.8061 5.73248 12.2687 7.1951 12.2687 8.99931C12.2687 10.8035 10.8061 12.2661 9.00183 12.2661C7.19763 12.2661 5.73505 10.8035 5.73505 8.99931Z" clip-rule="evenodd" fill="#36BA5F" fill-opacity="1.000000" fill-rule="evenodd"/>
</svg>
