<svg width="19.000000" height="22.000000" viewBox="0 0 19 22" fill="none" xmlns="http://www.w3.org/2000/svg" xmlns:xlink="http://www.w3.org/1999/xlink">
	<desc>
			Created with Pixso.
	</desc>
	<defs/>
	<path id="Vector" d="M18.05 4.93C16.82 4.93 15.69 4.52 14.77 3.83C13.73 3.05 12.98 1.89 12.71 0.56C12.65 0.23 12.61 -0.11 12.61 -0.46L9.1 -0.46L9.1 9.14L9.09 14.4C9.09 15.8 8.18 16.99 6.91 17.41C6.54 17.53 6.14 17.59 5.73 17.57C5.2 17.54 4.7 17.38 4.27 17.12C3.36 16.58 2.74 15.58 2.72 14.44C2.69 12.67 4.13 11.22 5.91 11.22C6.26 11.22 6.59 11.28 6.91 11.38L6.91 8.76L6.91 7.81C6.58 7.76 6.24 7.74 5.9 7.74C3.95 7.74 2.13 8.55 0.83 10C-0.15 11.1 -0.74 12.51 -0.83 13.98C-0.95 15.91 -0.24 17.75 1.13 19.1C1.33 19.3 1.55 19.49 1.77 19.66C2.94 20.56 4.38 21.05 5.9 21.05C6.24 21.05 6.58 21.03 6.91 20.98C8.32 20.77 9.63 20.12 10.66 19.1C11.92 17.85 12.62 16.19 12.63 14.42L12.61 6.57C13.22 7.04 13.88 7.42 14.59 7.72C15.69 8.19 16.86 8.42 18.06 8.42L18.06 5.87L18.06 4.93C18.06 4.93 18.05 4.93 18.05 4.93Z" fill="#36BA5F" fill-opacity="1.000000" fill-rule="nonzero"/>
</svg>
