<svg width="23.000000" height="19.000000" viewBox="0 0 23 19" fill="none" xmlns="http://www.w3.org/2000/svg" xmlns:xlink="http://www.w3.org/1999/xlink">
	<desc>
			Created with Pixso.
	</desc>
	<defs/>
	<path id="Vector" d="M22.3 2.24C21.44 2.62 20.52 2.87 19.55 2.99C20.54 2.4 21.3 1.46 21.65 0.34C20.73 0.89 19.71 1.29 18.62 1.5C17.75 0.58 16.5 -0.01 15.13 -0.01C12.49 -0.01 10.35 2.14 10.35 4.78C10.35 5.15 10.39 5.51 10.47 5.86C6.5 5.67 2.98 3.76 0.62 0.87C0.21 1.58 -0.03 2.4 -0.03 3.27C-0.03 4.93 0.82 6.39 2.1 7.25C1.31 7.23 0.58 7.01 -0.07 6.65C-0.07 6.67 -0.07 6.69 -0.07 6.71C-0.07 9.03 1.58 10.96 3.77 11.4C3.37 11.51 2.94 11.57 2.51 11.57C2.2 11.57 1.9 11.54 1.61 11.48C2.22 13.38 3.98 14.76 6.07 14.8C4.44 16.09 2.38 16.85 0.14 16.85C-0.25 16.85 -0.63 16.83 -1 16.78C1.11 18.14 3.62 18.93 6.32 18.93C15.12 18.93 19.93 11.65 19.93 5.33C19.93 5.12 19.92 4.92 19.91 4.71C20.85 4.04 21.66 3.2 22.3 2.24Z" fill="#36BA5F" fill-opacity="1.000000" fill-rule="nonzero"/>
</svg>
