<svg width="25.000000" height="13.000000" viewBox="0 0 25 13" fill="none" xmlns="http://www.w3.org/2000/svg" xmlns:xlink="http://www.w3.org/1999/xlink">
	<desc>
			Created with Pixso.
	</desc>
	<defs/>
	<path id="Shape" d="M22.17 8.62C24.19 10.39 24.61 11.02 24.68 11.12C25.52 12.43 23.75 12.59 23.75 12.59L20.03 12.59C20.03 12.59 19.12 12.6 18.35 12.09C17.08 11.28 15.76 9.7 14.83 9.98C14.05 10.21 14.06 11.24 14.06 12.13C14.06 12.45 13.78 12.59 13.15 12.59C12.53 12.59 12.27 12.59 11.99 12.59C9.95 12.59 7.74 11.91 5.53 9.65C2.4 6.44 -0.34 -0.02 -0.34 -0.02C-0.34 -0.02 -0.5 -0.35 -0.32 -0.55C-0.12 -0.77 0.42 -0.74 0.42 -0.74L4.03 -0.74C4.03 -0.74 4.37 -0.68 4.62 -0.51C4.82 -0.37 4.93 -0.1 4.93 -0.1C4.93 -0.1 5.54 1.86 6.31 3.12C7.82 5.57 8.52 5.63 9.03 5.37C9.78 4.99 9.54 2.38 9.54 2.38C9.54 2.38 9.57 1.26 9.18 0.76C8.88 0.38 8.3 0.17 8.05 0.14C7.85 0.12 8.19 -0.23 8.62 -0.43C9.2 -0.69 9.99 -0.75 11.35 -0.74C12.4 -0.73 12.71 -0.67 13.12 -0.58C14.37 -0.29 14.06 0.45 14.06 3.07C14.06 3.91 13.94 5.09 14.58 5.48C14.86 5.65 15.81 5.86 17.5 3.15C18.31 1.87 18.95 -0.25 18.95 -0.25C18.95 -0.25 19.08 -0.49 19.28 -0.6C19.49 -0.72 19.49 -0.72 19.78 -0.72C20.06 -0.72 22.95 -0.74 23.58 -0.74C24.21 -0.74 24.8 -0.75 24.9 -0.38C25.05 0.14 24.44 1.93 22.89 3.88C20.33 7.07 20.05 6.77 22.17 8.62Z" fill="#36BA5F" fill-opacity="1.000000" fill-rule="nonzero"/>
</svg>
