<svg width="13.000000" height="13.000000" viewBox="0 0 13 13" fill="none" xmlns="http://www.w3.org/2000/svg" xmlns:xlink="http://www.w3.org/1999/xlink">
	<desc>
			Created with Pixso.
	</desc>
	<defs/>
	<path id="Vector" d="M11.89 1.55L10.21 -0.13C10.09 -0.25 9.95 -0.34 9.79 -0.41C9.64 -0.47 9.47 -0.51 9.3 -0.5C8.96 -0.5 8.64 -0.37 8.4 -0.13L6.59 1.68C6.47 1.8 6.38 1.94 6.31 2.09C6.25 2.25 6.22 2.41 6.22 2.58C6.22 2.92 6.35 3.25 6.59 3.49L7.91 4.81C7.6 5.49 7.17 6.11 6.64 6.64C6.11 7.17 5.49 7.61 4.81 7.92L3.49 6.59C3.37 6.48 3.23 6.38 3.08 6.32C2.92 6.25 2.75 6.22 2.59 6.22C2.24 6.22 1.92 6.35 1.68 6.59L-0.13 8.4C-0.25 8.52 -0.34 8.66 -0.41 8.82C-0.47 8.97 -0.51 9.14 -0.5 9.31C-0.5 9.65 -0.37 9.97 -0.13 10.21L1.55 11.89C1.93 12.28 2.46 12.5 3.01 12.5C3.13 12.5 3.24 12.49 3.34 12.47C5.47 12.12 7.58 10.99 9.28 9.28C10.98 7.59 12.11 5.48 12.47 3.34C12.58 2.69 12.36 2.02 11.89 1.55Z" fill="#1A1A1A" fill-opacity="1.000000" fill-rule="nonzero"/>
</svg>
