<svg width="15.000000" height="14.000000" viewBox="0 0 15 14" fill="none" xmlns="http://www.w3.org/2000/svg" xmlns:xlink="http://www.w3.org/1999/xlink">
	<desc>
			Created with Pixso.
	</desc>
	<defs/>
	<path id="Fill 1" d="M9.81 2.83C9.48 2.84 9.18 2.69 8.98 2.43L6.93 -0.26C6.4 -0.95 5.31 -0.77 5.03 0.06L3.97 3.27C3.86 3.57 3.62 3.81 3.31 3.91L0.03 4.92C-0.85 5.19 -1.01 6.37 -0.24 6.87L2.45 8.61C2.74 8.8 2.92 9.12 2.91 9.47L2.86 12.64C2.84 13.53 3.85 14.06 4.58 13.54L7.46 11.48C7.71 11.3 8.03 11.24 8.33 11.33L11.73 12.35C12.58 12.61 13.37 11.78 13.06 10.94L11.99 7.96C11.87 7.63 11.93 7.27 12.14 7L14.12 4.48C14.69 3.76 14.16 2.7 13.23 2.72L9.81 2.83Z" fill="#1A1A1A" fill-opacity="1.000000" fill-rule="evenodd"/>
</svg>
