<svg width="370.000000" height="330.000000" viewBox="0 0 370 330" fill="none" xmlns="http://www.w3.org/2000/svg" xmlns:xlink="http://www.w3.org/1999/xlink">
	<desc>
			Created with Pixso.
	</desc>
	<defs/>
	<path id="Vector 1054" d="M159.54 90.03C160.75 101.07 165.06 112.16 167.41 124.09C169.49 125.4 146.46 119.57 149.28 116.73C152.09 113.89 146.59 105.05 147.44 98.31C148.62 89.01 153.19 85.98 155.29 85.82C157.39 85.65 159.28 87.65 159.54 90.03Z" fill="#F5C1C7" fill-opacity="1.000000" fill-rule="evenodd"/>
	<path id="Vector 1051" d="M83.04 66.54C84.64 59.66 88.66 36.46 93.82 34.85C101.92 32.33 132.18 41.34 148.78 45.38C152.46 46.23 159.81 47.94 162.16 49.61C164.5 51.27 163.88 53.93 163.54 58.34C163.27 61.86 146.62 135.12 137.01 175.48C137.01 175.48 134.53 184.99 130.4 186.28C125.25 187.88 65.71 173.49 62.71 171.67C59.72 169.86 57.25 168.72 58.73 162.34C59.92 157.23 73.28 108.55 83.04 66.54Z" fill="#5992E8" fill-opacity="1.000000" fill-rule="evenodd"/>
	<g opacity="0.400000">
		<path id="Vector" d="M125.01 77.86C126.94 79.82 127.7 81.67 127.6 84.41C127.41 89.6 120.38 91.94 115.19 91.63C114.84 91.61 114.5 91.57 114.18 91.51C111.62 91.03 108.97 85.88 109.88 81.85C111.17 76.19 120.16 74 124.71 77.6C124.82 77.68 124.92 77.77 125.01 77.86Z" fill="#FAF8F9" fill-opacity="1.000000" fill-rule="nonzero"/>
	</g>
	<g opacity="0.400000">
		<path id="Vector 556" d="M121.88 71.73C120.85 73.14 119.01 74.24 117.87 74.53C117.46 74.64 117.05 74.46 116.73 74.19C116.51 74.01 116.32 73.79 116.3 73.51C116.26 73.02 116.39 72.18 117.05 71.01C117.65 69.92 119.44 69.09 121.08 68.56C122.3 68.16 123.19 68.98 122.71 70.17C122.49 70.73 122.21 71.29 121.88 71.73Z" fill="#FAF8F9" fill-opacity="1.000000" fill-rule="nonzero"/>
	</g>
	<g opacity="0.400000">
		<circle id="Ellipse 555" r="3.629977" transform="matrix(0.798148 0.798148 -0.602462 0.602462 149.042 60.3768)" fill="#FAF8F9" fill-opacity="1.000000"/>
	</g>
	<path id="Vector 1053" d="M167.46 123.95C171.28 133.97 167.85 146.99 189.17 165.61C210.48 184.23 172.59 174.75 166.63 181.7C159.77 189.69 154.57 195.25 144.68 200.93C139.54 203.87 148.7 208.4 143.74 206.86C139.77 205.63 91.87 182.16 80.28 175.54C75.48 173.41 65.98 168.12 63.82 165.98C60.55 162.74 62.15 159.82 63.93 159.33C65.71 158.85 79.01 161.78 91.92 162.49C93.31 162.57 95.29 161.97 94.27 160.13C92.87 157.62 73.44 142.55 68.95 137.27C67.46 135.52 66.25 133.46 67.94 131.76C69.63 130.05 78.89 132.48 92.26 141.23C105.63 149.99 106.75 148.85 107.88 147.71C109.01 146.58 107.25 139.2 94.64 124.45C82.04 109.69 85.51 107.5 92.34 109.77C99.17 112.03 120.09 132.78 125.43 131.32C130.77 129.86 127.42 125.4 124.06 120.94C120.7 116.48 108.66 103.12 109.42 97.11C110.19 91.11 115.45 96.27 119.91 99.62C125.1 103.54 132.29 109.66 138.5 113.56C140.58 114.87 151.99 121.09 152.94 116.99C154.98 108.11 165.22 118.07 167.46 123.95Z" fill="#F5C1C7" fill-opacity="1.000000" fill-rule="evenodd"/>
	<path id="Vector 1052" d="M142.56 205.26C160.66 216.94 298.93 283.05 302.09 265C303.03 259.64 309.22 258.5 315.45 257.34C321.54 256.21 327.67 255.07 329.01 250C330.64 243.81 338.11 240.25 344.34 237.28C350.31 234.44 355.14 232.14 352.63 228.59C347.49 221.32 256.78 198.89 237.32 189.66C218.16 180.57 182.13 159.56 176.78 151.3C182.88 161.82 168.66 172.8 156.03 182.55C144.27 191.64 133.88 199.66 142.56 205.26ZM176.55 150.91C176.62 151.04 176.69 151.17 176.78 151.3C176.7 151.17 176.63 151.04 176.55 150.91Z" fill="#F5C1C7" fill-opacity="1.000000" fill-rule="evenodd"/>
</svg>
