<svg width="275.000000" height="196.000000" viewBox="0 0 275 196" fill="none" xmlns="http://www.w3.org/2000/svg" xmlns:xlink="http://www.w3.org/1999/xlink">
	<desc>
			Created with Pixso.
	</desc>
	<defs/>
	<path id="Vector" d="M116.79 130.21C110.91 146.32 106.98 165.65 117.34 167.51C127.7 169.37 126.32 146.24 138.05 140.56C149.78 134.87 168.94 146.63 175.49 147.99C182.05 149.36 189.3 151.73 188.7 134.82C188.09 117.91 182.47 63.48 181.04 49.31C179.61 35.14 168.28 34.46 157.51 41.27C146.75 48.09 66.34 105.83 59.86 113.57C53.38 121.32 53.65 124.15 59.82 125.26C65.98 126.36 85.18 132.21 95.64 124.59C111.65 112.93 145.65 71.92 151.13 73.19C156.48 74.43 121.37 117.68 116.79 130.21Z" fill="#5992E8" fill-opacity="1.000000" fill-rule="nonzero"/>
	<path id="Vector" d="M20.76 174.43C16.16 177.13 11.39 180.98 13.5 183.48C15.61 185.98 19.87 180.16 23.81 181.13C27.75 182.09 30.01 188.71 31.31 190.34C32.61 191.96 33.88 193.97 37.09 189.8C40.29 185.62 49.74 171.46 52.21 167.78C54.67 164.1 52.09 161.69 48.16 161.19C44.23 160.69 13.51 158.58 10.42 159.15C7.33 159.73 6.83 160.46 8.09 161.95C9.35 163.43 12.79 168.64 16.81 168.89C22.96 169.27 39.24 166.18 40.3 167.58C41.34 168.93 24.35 172.34 20.76 174.43Z" fill="#5992E8" fill-opacity="1.000000" fill-rule="nonzero"/>
	<path id="Vector" d="M259.16 20.41C259.62 23.47 260.67 26.87 262.48 26.27C264.28 25.67 262.06 22.13 263.43 20.21C264.8 18.3 268.85 18.5 270 18.15C271.16 17.8 272.52 17.55 270.96 14.92C269.4 12.3 263.81 4.16 262.35 2.03C260.9 -0.09 259.05 0.78 257.93 2.79C256.81 4.8 249.06 20.9 248.7 22.69C248.34 24.48 248.63 24.91 249.71 24.55C250.78 24.19 254.33 23.46 255.33 21.35C256.85 18.11 258.7 8.68 259.68 8.4C260.63 8.14 258.81 18.03 259.16 20.41Z" fill="#5992E8" fill-opacity="1.000000" fill-rule="nonzero"/>
</svg>
